<?xml version="1.0" encoding="UTF-8"?>
<svg id="Livello_1" data-name="Livello 1" xmlns="http://www.w3.org/2000/svg" xmlns:xlink="http://www.w3.org/1999/xlink" viewBox="0 0 460 458">
  <defs>
    <radialGradient id="radial-gradient" cx="31.94" cy="54.57" fx="31.94" fy="54.57" r="32.48" gradientTransform="translate(0)" gradientUnits="userSpaceOnUse">
      <stop offset="0" stop-color="#e7ecef"/>
      <stop offset="1" stop-color="#bfc8cd"/>
    </radialGradient>
    <linearGradient id="linear-gradient" x1="31.09" y1="20.75" x2="47.67" y2="84.28" gradientUnits="userSpaceOnUse">
      <stop offset="0" stop-color="#fff"/>
      <stop offset="1" stop-color="#b7c6ce"/>
    </linearGradient>
    <linearGradient id="linear-gradient-2" x1="23.54" y1="1.21" x2="34.97" y2="42.82" gradientUnits="userSpaceOnUse">
      <stop offset="0" stop-color="#fffbd4"/>
      <stop offset="1" stop-color="#000"/>
    </linearGradient>
    <linearGradient id="linear-gradient-3" x1="18.16" y1="-4.36" x2="39.45" y2="57.37" gradientUnits="userSpaceOnUse">
      <stop offset="0" stop-color="#fff"/>
      <stop offset="1" stop-color="#000"/>
    </linearGradient>
    <linearGradient id="linear-gradient-4" x1="33" y1="48.94" x2="33" y2="16.82" xlink:href="#linear-gradient"/>
    <symbol id="Home_-_grigio" data-name="Home - grigio" viewBox="0 0 64 64">
      <g>
        <g>
          <g>
            <circle cx="32" cy="32" r="31.5" fill="url(#radial-gradient)"/>
            <path d="m32,1c17.09,0,31,13.91,31,31s-13.91,31-31,31S1,49.09,1,32,14.91,1,32,1m0-1C14.33,0,0,14.33,0,32s14.33,32,32,32,32-14.33,32-32S49.67,0,32,0h0Z" fill="#8b98a0"/>
          </g>
          <g mix-blend-mode="multiply" opacity=".8">
            <path d="m53.4,9.6c5.32,5.57,8.6,13.11,8.6,21.4,0,17.09-13.9,31-31,31-8.29,0-15.83-3.28-21.4-8.6,5.65,5.91,13.6,9.6,22.4,9.6,17.09,0,31-13.9,31-31,0-8.8-3.69-16.75-9.6-22.4Z" fill="url(#linear-gradient)"/>
          </g>
          <g mix-blend-mode="screen">
            <path d="m24.35,37.7c10.88-9.36,24.95-18.1,37.08-11.51C58.72,12.42,46.55,2,32,2,15.46,2,2,15.46,2,32c0,4.01.79,7.83,2.23,11.33,4.76,1.2,12.16,1.23,20.13-5.63Z" fill="url(#linear-gradient-2)"/>
          </g>
          <g mix-blend-mode="screen">
            <path d="m4,34c0-16.54,13.46-30,30-30,7.76,0,14.85,2.96,20.18,7.82-5.49-6.03-13.4-9.82-22.18-9.82C15.46,2,2,15.46,2,32c0,8.78,3.79,16.69,9.82,22.18-4.86-5.33-7.82-12.42-7.82-20.18Z" fill="url(#linear-gradient-3)"/>
          </g>
        </g>
        <path d="m50.46,30.33l-6.33-4.83v-8h-4.52v4.54l-6.6-5.04-17.46,13.33,2.75,3.6h0s1.88-1.44,1.88-1.44v16.51h25.66v-16.51l1.88,1.43,2.75-3.59Zm-7.14,16.16h-5.79v-9.55h-9.05v9.55h-5.79v-15.6l10.32-7.88,10.32,7.88v15.6Z" fill="url(#linear-gradient-4)" mix-blend-mode="multiply" opacity=".8"/>
        <path d="m49.46,29.33l-6.33-4.83v-8h-4.53v4.54l-6.6-5.04-17.46,13.33,2.75,3.6h0s1.88-1.44,1.88-1.44v16.51h25.66v-16.51l1.88,1.43,2.75-3.59Zm-7.14,16.16h-5.79v-9.55h-9.05v9.55h-5.79v-15.6l10.32-7.88,10.32,7.88v15.6Z"/>
      </g>
    </symbol>
  </defs>
  <use width="64" height="64" transform="scale(7.19 7.16)" xlink:href="#Home_-_grigio"/>
</svg>